<svg xmlns="http://www.w3.org/2000/svg" viewBox="0 0 910 290" width="910" height="290"><defs><marker id="ah" viewBox="0 0 10 10" refX="9" refY="5" markerWidth="7" markerHeight="7" orient="auto"><path d="M0,0 L10,5 L0,10 z" fill="#5b6475"/></marker></defs><rect width="910" height="290" fill="#ffffff"/><rect x="20" y="20" width="420" height="250" rx="12" fill="#f8fafc" stroke="#94a3b8" stroke-width="2"/><text x="230" y="52" font-size="18" fill="#1b1f2a" font-weight="700" text-anchor="middle" font-family="'Noto Sans CJK KR','Malgun Gothic',sans-serif">FF — 시작 이미지 1장</text><rect x="45" y="75" width="20" height="20" rx="4" fill="#1f9d55"/><path d="M49,85 l5,5 l9,-11" stroke="#fff" stroke-width="3" fill="none"/><text x="75" y="90" font-size="14" fill="#1b1f2a" font-weight="400" text-anchor="start" font-family="'Noto Sans CJK KR','Malgun Gothic',sans-serif">시작 프레임 이미지 사용 (#52)</text><rect x="45" y="110" width="20" height="20" rx="4" fill="#c0392b"/><path d="M50,115 l10,10 M60,115 l-10,10" stroke="#fff" stroke-width="3"/><text x="75" y="125" font-size="14" fill="#1b1f2a" font-weight="400" text-anchor="start" font-family="'Noto Sans CJK KR','Malgun Gothic',sans-serif">끝 프레임 이미지 사용 (#158)</text><rect x="45" y="145" width="20" height="20" rx="4" fill="#c0392b"/><path d="M50,150 l10,10 M60,150 l-10,10" stroke="#fff" stroke-width="3"/><text x="75" y="160" font-size="14" fill="#1b1f2a" font-weight="400" text-anchor="start" font-family="'Noto Sans CJK KR','Malgun Gothic',sans-serif">마지막이미지 (맨 아래 그룹)</text><text x="230" y="200" font-size="14" fill="#c0392b" font-weight="700" text-anchor="middle" font-family="'Noto Sans CJK KR','Malgun Gothic',sans-serif">끝 프레임 두 칸은 함께 끈다</text><text x="230" y="228" font-size="13" fill="#475569" font-weight="400" text-anchor="middle" font-family="'Noto Sans CJK KR','Malgun Gothic',sans-serif">시작 이미지만 올리고 생성</text><rect x="470" y="20" width="420" height="250" rx="12" fill="#f8fafc" stroke="#94a3b8" stroke-width="2"/><text x="680" y="52" font-size="18" fill="#1b1f2a" font-weight="700" text-anchor="middle" font-family="'Noto Sans CJK KR','Malgun Gothic',sans-serif">FLF — 시작·끝 이미지 2장</text><rect x="495" y="75" width="20" height="20" rx="4" fill="#1f9d55"/><path d="M499,85 l5,5 l9,-11" stroke="#fff" stroke-width="3" fill="none"/><text x="525" y="90" font-size="14" fill="#1b1f2a" font-weight="400" text-anchor="start" font-family="'Noto Sans CJK KR','Malgun Gothic',sans-serif">시작 프레임 이미지 사용 (#52)</text><rect x="495" y="110" width="20" height="20" rx="4" fill="#1f9d55"/><path d="M499,120 l5,5 l9,-11" stroke="#fff" stroke-width="3" fill="none"/><text x="525" y="125" font-size="14" fill="#1b1f2a" font-weight="400" text-anchor="start" font-family="'Noto Sans CJK KR','Malgun Gothic',sans-serif">끝 프레임 이미지 사용 (#158)</text><rect x="495" y="145" width="20" height="20" rx="4" fill="#1f9d55"/><path d="M499,155 l5,5 l9,-11" stroke="#fff" stroke-width="3" fill="none"/><text x="525" y="160" font-size="14" fill="#1b1f2a" font-weight="400" text-anchor="start" font-family="'Noto Sans CJK KR','Malgun Gothic',sans-serif">마지막이미지 (맨 아래 그룹)</text><text x="680" y="200" font-size="14" fill="#1f9d55" font-weight="700" text-anchor="middle" font-family="'Noto Sans CJK KR','Malgun Gothic',sans-serif">끝 프레임 두 칸은 함께 켠다</text><text x="680" y="228" font-size="13" fill="#475569" font-weight="400" text-anchor="middle" font-family="'Noto Sans CJK KR','Malgun Gothic',sans-serif">시작·끝 이미지를 모두 올리고 생성</text></svg>